<mxfile host="app.diagrams.net" modified="2021-04-27T11:52:43.755Z" agent="5.0 (Windows NT 6.1; Win64; x64) AppleWebKit/537.36 (KHTML, like Gecko) Chrome/90.0.4430.85 Safari/537.36" etag="PziYM-Z3KIG2rLT_MJTb" version="14.6.6" type="github">
  <diagram id="FP7-13N_w7JKo78jw17r" name="第 1 页">
    <mxGraphModel dx="1102" dy="582" grid="1" gridSize="10" guides="1" tooltips="1" connect="1" arrows="1" fold="1" page="1" pageScale="1" pageWidth="827" pageHeight="1169" math="0" shadow="0">
      <root>
        <mxCell id="0" />
        <mxCell id="1" parent="0" />
        <mxCell id="Y4eBu1srXTZ4vl_-DJgU-1" value="直播事件" style="rounded=0;whiteSpace=wrap;html=1;horizontal=0;rotation=90;verticalAlign=middle;" vertex="1" parent="1">
          <mxGeometry x="450" y="10" width="70" height="170" as="geometry" />
        </mxCell>
        <mxCell id="Y4eBu1srXTZ4vl_-DJgU-2" value="点播事件" style="rounded=0;whiteSpace=wrap;html=1;horizontal=0;rotation=90;verticalAlign=middle;" vertex="1" parent="1">
          <mxGeometry x="450" y="120" width="70" height="170" as="geometry" />
        </mxCell>
        <mxCell id="Y4eBu1srXTZ4vl_-DJgU-3" value="插播事件" style="rounded=0;whiteSpace=wrap;html=1;horizontal=0;rotation=90;verticalAlign=middle;" vertex="1" parent="1">
          <mxGeometry x="450" y="230" width="70" height="170" as="geometry" />
        </mxCell>
        <mxCell id="Y4eBu1srXTZ4vl_-DJgU-4" value="用户事件" style="rounded=0;whiteSpace=wrap;html=1;horizontal=0;rotation=90;verticalAlign=middle;" vertex="1" parent="1">
          <mxGeometry x="450" y="340" width="70" height="170" as="geometry" />
        </mxCell>
      </root>
    </mxGraphModel>
  </diagram>
</mxfile>
